<?xml version="1.0" encoding="iso-8859-1"?>
<!-- Generator: Adobe Illustrator 19.0.0, SVG Export Plug-In . SVG Version: 6.00 Build 0)  -->
<svg version="1.1" id="Layer_1" xmlns="http://www.w3.org/2000/svg" xmlns:xlink="http://www.w3.org/1999/xlink" x="0px" y="0px"
	 viewBox="0 0 473.935 473.935" style="enable-background:new 0 0 473.935 473.935;" xml:space="preserve">
<circle style="fill:#337180;" cx="236.967" cy="236.967" r="236.967"/>
<path style="fill:#448A96;" d="M236.952,473.935c78.533,0,148.115-38.222,191.232-97.058c-8.011-11.48-39.525-45.025-145.593-70.548
	c0-24.082-2.398-38.507-2.398-38.507s31.289-43.337,33.691-103.513c0-9.568,4.7-77.436-77.017-80.508c0-0.03,0-0.079,0-0.101
	c-0.202,0-0.382,0.045-0.602,0.045c-0.21,0-0.385-0.045-0.595-0.045c0,0.022,0,0.075,0,0.101
	c-81.702,3.068-77.017,70.941-77.017,80.505c2.398,60.175,33.691,103.513,33.691,103.513s-2.417,14.425-2.417,38.507
	C86.664,331.174,54.08,363.623,45.044,375.908C88.104,435.286,157.997,473.935,236.952,473.935z"/>
<g>
</g>
<g>
</g>
<g>
</g>
<g>
</g>
<g>
</g>
<g>
</g>
<g>
</g>
<g>
</g>
<g>
</g>
<g>
</g>
<g>
</g>
<g>
</g>
<g>
</g>
<g>
</g>
<g>
</g>
</svg>
